<?xml version="1.0" standalone="no"?>
<!DOCTYPE svg PUBLIC "-//W3C//DTD SVG 20010904//EN"
 "http://www.w3.org/TR/2001/REC-SVG-20010904/DTD/svg10.dtd">
<svg version="1.0" xmlns="http://www.w3.org/2000/svg"
 width="880.000000pt" height="1191.000000pt" viewBox="0 0 880.000000 1191.000000"
 preserveAspectRatio="xMidYMid meet">

<g transform="translate(0.000000,1191.000000) scale(0.100000,-0.100000)"
fill="#657F64" stroke="none">
<path d="M4128 11749 c-750 -41 -1515 -293 -2128 -702 -830 -554 -1462 -1386
-1768 -2327 -98 -301 -155 -579 -192 -944 -42 -413 -43 -568 -37 -4199 6
-3317 7 -3460 24 -3490 11 -19 38 -42 68 -57 l50 -25 4205 0 c4528 0 4268 -3
4351 50 21 14 46 42 58 68 l22 45 9 3403 c5 2117 5 3514 -1 3694 -20 623 -80
1013 -226 1460 -211 646 -572 1238 -1063 1739 -349 357 -726 631 -1155 843
-430 212 -836 336 -1335 407 -278 40 -572 52 -882 35z m772 -124 c527 -65 971
-196 1410 -416 889 -445 1623 -1229 2021 -2159 148 -347 262 -762 309 -1130
46 -357 44 -188 47 -4107 l3 -3683 -4279 0 -4279 0 -6 2748 c-11 4395 -11
4449 2 4637 52 710 174 1192 437 1730 584 1193 1684 2058 2944 2315 174 35
394 67 546 80 163 13 696 4 845 -15z"/>
<path d="M4075 11483 c-180 -11 -496 -63 -700 -114 -1141 -287 -2129 -1098
-2662 -2185 -272 -553 -399 -1102 -443 -1904 -13 -235 -13 -1460 0 -4225 5
-1111 10 -2193 10 -2404 l0 -384 4118 8 c2264 4 4118 8 4119 9 1 0 2 1592 3
3536 3 3535 2 3645 -31 3955 -125 1206 -747 2277 -1729 2982 -552 396 -1241
648 -1969 718 -139 14 -559 18 -716 8z m785 -122 c599 -76 1102 -244 1582
-530 1017 -604 1746 -1688 1922 -2856 68 -452 70 -583 59 -4607 l-8 -2926 -23
-25 c-13 -14 -43 -30 -67 -36 -32 -8 -1158 -11 -3993 -11 l-3950 0 -7 193
c-12 336 0 6885 13 7032 34 386 70 599 143 853 78 269 161 478 291 734 486
958 1310 1673 2300 1997 318 104 585 158 963 195 79 8 692 -3 775 -13z"/>
<path d="M4155 9879 c-496 -42 -1027 -229 -1460 -514 -521 -343 -953 -855
-1161 -1375 -31 -78 -38 -108 -38 -167 -1 -57 3 -77 20 -100 68 -93 224 -78
307 31 19 26 76 128 125 229 100 202 187 340 312 497 551 690 1455 1100 2290
1041 501 -36 928 -182 1355 -466 336 -223 608 -503 819 -844 29 -48 91 -161
137 -251 128 -253 209 -321 344 -291 75 17 115 62 115 131 0 69 -18 119 -120
325 -136 278 -263 466 -485 715 -274 308 -662 591 -1055 770 -485 220 -999
312 -1505 269z m436 -99 c569 -45 1126 -257 1594 -610 464 -349 795 -777 1004
-1295 l48 -120 -30 -3 c-16 -2 -42 2 -58 9 -42 17 -119 105 -153 175 -181 364
-347 604 -584 843 -411 413 -939 695 -1508 805 -505 97 -1056 40 -1544 -161
-640 -263 -1185 -754 -1472 -1327 -80 -159 -128 -234 -186 -288 -44 -41 -135
-88 -148 -76 -8 9 61 189 121 316 518 1094 1743 1822 2916 1732z"/>
<path d="M4170 9039 c-140 -17 -305 -51 -417 -85 -623 -189 -1149 -605 -1468
-1162 -101 -177 -195 -424 -195 -513 0 -90 60 -142 163 -140 126 2 190 70 296
315 64 147 112 233 198 353 204 286 466 507 788 663 160 78 240 108 398 149
650 169 1367 -30 1870 -518 123 -119 205 -216 291 -346 62 -94 98 -161 209
-396 69 -145 165 -239 244 -239 43 0 104 40 126 83 25 48 26 151 3 231 -24 82
-114 276 -183 396 -135 232 -361 494 -573 664 -338 270 -735 451 -1146 522
-167 28 -470 40 -604 23z m525 -119 c757 -111 1445 -613 1776 -1295 58 -120
149 -356 149 -387 0 -7 -18 -9 -46 -5 -77 8 -111 51 -224 282 -111 229 -197
362 -335 523 -313 364 -762 622 -1245 717 -687 134 -1451 -133 -1952 -682
-158 -173 -269 -343 -369 -565 -63 -141 -113 -216 -167 -253 -38 -26 -102 -34
-102 -14 0 6 16 58 34 114 278 831 1077 1473 1956 1574 140 16 386 12 525 -9z"/>
<path d="M3122 5349 c-46 -9 -87 -52 -102 -104 -14 -51 4 -136 49 -224 16 -31
260 -438 543 -906 283 -467 527 -871 542 -897 l27 -47 -58 29 c-135 68 -304
60 -578 -25 -345 -107 -458 -104 -703 19 -109 55 -180 76 -251 76 -79 0 -136
-18 -303 -93 -177 -81 -256 -101 -352 -93 -126 12 -299 84 -471 199 -119 79
-151 141 -104 201 29 37 78 36 106 -3 34 -45 152 -128 228 -160 140 -59 301
-75 440 -46 66 14 164 58 283 126 45 26 63 31 121 31 89 0 126 -11 318 -92
205 -88 264 -103 369 -98 76 4 89 8 220 73 146 72 211 87 299 71 39 -8 115
-69 115 -93 0 -8 5 -11 11 -7 7 4 10 28 7 64 -3 44 -11 67 -32 94 -29 39 -73
66 -105 66 -20 0 -20 1 -4 35 30 62 -11 146 -90 187 -63 32 -151 21 -307 -38
-107 -41 -136 -47 -200 -48 -87 -1 -111 10 -185 80 -69 66 -134 94 -239 101
-116 8 -210 -9 -406 -72 -263 -86 -350 -102 -454 -85 -83 13 -150 48 -241 125
-95 80 -163 115 -225 115 -62 0 -106 -29 -133 -88 -20 -45 -21 -61 -21 -327 0
-154 6 -340 13 -413 12 -122 11 -135 -4 -152 -52 -58 -17 -167 87 -266 106
-101 335 -231 473 -267 153 -41 250 -30 438 49 222 92 274 107 367 107 99 0
136 -13 299 -102 142 -79 194 -95 290 -89 86 6 156 28 313 98 162 74 237 94
338 94 97 0 137 -14 215 -74 95 -73 133 -85 275 -84 111 1 140 5 265 38 387
104 362 99 495 100 115 1 129 -1 180 -25 30 -14 78 -45 105 -68 67 -55 135
-75 236 -68 62 4 127 22 321 87 216 74 253 83 334 88 110 6 144 -4 244 -69 42
-27 102 -58 135 -69 199 -69 474 -8 770 171 157 94 185 138 184 294 0 55 -4
161 -9 235 -6 96 -4 205 7 380 8 135 13 264 10 288 -9 81 -81 128 -181 120
-63 -5 -118 -32 -216 -105 -200 -149 -325 -159 -640 -53 -227 76 -261 84 -395
84 -111 1 -124 -1 -179 -27 -33 -15 -85 -52 -116 -81 -110 -106 -184 -102
-474 19 -117 49 -193 56 -255 23 -86 -45 -130 -133 -98 -197 15 -30 15 -30
-15 -37 -81 -17 -158 -138 -143 -224 7 -43 25 -64 25 -30 0 38 29 79 78 107
40 24 58 28 124 28 76 0 77 -1 233 -80 154 -78 159 -80 240 -83 100 -5 146 7
341 89 170 70 237 89 324 89 90 0 166 -20 347 -91 188 -73 272 -93 369 -86
107 8 162 36 247 127 91 98 133 124 188 117 68 -9 103 -58 82 -113 -9 -23
-197 -144 -309 -199 -115 -57 -224 -85 -324 -85 -97 0 -156 18 -303 91 -218
110 -291 111 -554 8 -86 -33 -188 -68 -227 -76 -95 -20 -211 -12 -359 27 -64
16 -170 44 -234 60 -254 66 -446 45 -568 -61 -21 -19 -36 -29 -33 -24 3 6 127
219 275 475 532 917 791 1366 816 1415 81 162 73 287 -24 338 -74 39 -185 -9
-268 -116 -21 -29 -204 -333 -405 -677 -200 -344 -369 -632 -375 -640 -7 -10
-10 172 -11 560 0 316 -5 608 -9 648 -12 101 -50 176 -109 213 -74 47 -166 36
-205 -24 -45 -69 -47 -101 -56 -781 -5 -356 -10 -649 -13 -651 -2 -3 -184 291
-403 651 -248 409 -417 677 -448 711 -80 87 -165 127 -235 112z m2520 -135
l27 -14 -211 -367 c-265 -462 -569 -985 -836 -1440 -156 -266 -210 -349 -218
-340 -11 12 -237 374 -604 972 -485 789 -644 1053 -662 1103 -12 35 -16 65
-12 88 6 31 9 34 41 34 25 0 43 -9 73 -37 26 -25 216 -329 543 -868 277 -456
514 -846 526 -865 l22 -35 -3 867 c-3 860 -3 867 18 894 33 45 44 48 97 25
l47 -20 0 -873 0 -873 168 295 c233 408 390 677 635 1085 279 465 244 415 286
398 20 -9 48 -21 63 -29z m-4201 -1429 c24 -9 85 -45 134 -81 200 -144 360
-191 506 -148 30 9 100 40 155 70 164 88 303 112 454 80 36 -8 130 -42 210
-75 173 -74 235 -91 329 -91 81 0 144 20 209 68 62 44 104 56 147 42 97 -32
54 -124 -90 -191 -108 -51 -216 -72 -330 -66 -119 7 -152 17 -330 97 -158 70
-213 84 -308 77 -61 -4 -87 -13 -211 -75 -170 -84 -226 -102 -326 -102 -152 0
-318 63 -515 195 -113 76 -155 121 -155 168 0 46 45 58 121 32z m6072 -14 c7
-7 2 -23 -17 -52 -128 -193 -371 -319 -615 -319 -126 0 -198 19 -359 90 -73
33 -154 65 -180 71 -93 21 -198 -4 -372 -91 -239 -119 -416 -108 -742 47 -111
52 -120 68 -68 118 23 22 41 29 83 33 48 4 61 0 149 -46 135 -71 191 -86 302
-79 114 7 168 26 270 95 96 66 144 82 247 82 105 0 188 -19 365 -83 204 -74
274 -90 381 -85 114 4 169 30 287 132 58 50 105 81 135 91 49 15 116 14 134
-4z m-6031 -614 c29 -13 112 -60 183 -104 144 -87 221 -116 305 -116 72 0 134
21 304 104 158 78 219 94 326 86 79 -5 123 -20 339 -115 152 -67 229 -81 332
-60 43 9 127 38 186 63 214 94 254 107 338 112 105 7 168 -10 343 -91 274
-128 346 -128 591 1 157 83 217 103 300 103 91 0 124 -11 296 -96 269 -132
343 -135 605 -22 170 74 247 99 325 105 95 7 162 -11 342 -96 173 -81 205 -91
294 -91 114 0 222 43 364 146 143 103 145 104 191 104 35 0 47 -5 60 -25 33
-50 -9 -101 -171 -208 -221 -145 -410 -201 -565 -167 -25 6 -120 47 -212 91
-159 77 -170 81 -250 86 -104 7 -155 -7 -331 -88 -294 -134 -371 -134 -658 5
-208 101 -316 106 -507 25 -398 -169 -420 -170 -692 -39 -200 97 -253 109
-365 87 -42 -9 -129 -39 -193 -68 -343 -151 -399 -152 -679 -13 -240 120 -308
122 -540 19 -163 -72 -250 -95 -367 -95 -167 0 -351 63 -478 164 -61 48 -148
148 -174 198 l-16 31 60 -6 c33 -4 84 -17 114 -30z m5977 -263 c26 -22 31 -33
31 -70 0 -37 -6 -51 -37 -86 -72 -80 -297 -202 -438 -238 -151 -39 -231 -25
-455 77 -87 39 -176 72 -222 81 -72 15 -84 15 -157 0 -50 -10 -130 -40 -221
-83 -137 -64 -263 -105 -319 -105 -56 0 -152 33 -303 106 -270 130 -304 128
-673 -34 -211 -92 -306 -87 -535 28 -143 72 -204 90 -304 90 -98 0 -160 -17
-332 -91 -276 -118 -361 -117 -646 11 -240 109 -321 115 -453 38 -127 -74
-217 -100 -366 -106 -181 -7 -332 30 -472 115 -106 64 -260 224 -242 252 9 16
86 13 136 -4 24 -9 97 -52 162 -96 174 -118 212 -134 322 -133 101 0 141 11
350 94 158 62 228 80 320 80 91 0 124 -10 285 -86 167 -78 207 -88 318 -81 68
4 112 14 202 47 266 96 311 111 376 119 119 15 171 2 349 -88 88 -45 183 -86
210 -92 95 -20 178 0 380 94 168 77 218 90 329 85 81 -4 103 -9 206 -52 294
-123 356 -139 464 -116 55 11 85 23 276 105 165 71 294 70 528 -2 302 -92 387
-106 519 -84 133 23 246 99 282 191 8 19 19 41 24 48 16 21 73 14 106 -14z"/>
</g>
</svg>
